<svg xmlns="http://www.w3.org/2000/svg" xmlns:xlink="http://www.w3.org/1999/xlink" viewBox="0 0 640 640" width="640" height="640"><defs><path d="M589.05 320c0 149.81-121.63 271.43-271.43 271.43-149.81 0-271.43-121.62-271.43-271.43S167.81 48.57 317.62 48.57c149.8 0 271.43 121.62 271.43 271.43z" id="a"/><linearGradient id="b" gradientUnits="userSpaceOnUse" x1="317.62" y1="48.57" x2="317.62" y2="591.43"><stop offset="0%" stop-color="#4792cc"/><stop offset="100%" stop-color="#8c1a1a"/></linearGradient><path d="M333.15 133.58v164.91c92.18-97.65 142.03-98.67 149.54-3.07 7.51 95.6-53.26 165.93-182.32 211l-97.3-294.99c-32.78 8.19-42.34.68-28.68-22.54 13.65-23.21 29.36-30.72 47.11-22.53l73.75 187.44V133.58h37.9z" id="c"/></defs><use xlink:href="#a" fill="url(#b)"/><use xlink:href="#c" fill="#fff"/><use xlink:href="#c" fill-opacity="0" stroke="#fff"/></svg>